<svg width="29" height="29" viewBox="0 0 29 29" fill="none" xmlns="http://www.w3.org/2000/svg">
<rect width="29" height="29" fill="#E5E5E5"/>
<g id="Day 1384 Landing Page UI Design" clip-path="url(#clip0_0_1)">
<rect width="1600" height="1200" transform="translate(-1210 -642)" fill="white"/>
<rect id="Rectangle 18" x="-1210" y="-642" width="1600" height="1200" fill="#EDEDF9"/>
<g id="Group 29">
<g id="Rectangle 14" filter="url(#filter0_d_0_1)">
<path d="M-1117 -578C-1117 -591.807 -1105.81 -603 -1092 -603H298C311.807 -603 323 -591.807 323 -578V496C323 509.807 311.807 521 298 521H-1092C-1105.81 521 -1117 509.807 -1117 496V-578Z" fill="white"/>
</g>
<g id="Frame 24">
<g id="components/software-btn">
<circle id="Ellipse 5" cx="14.4988" cy="14.5" r="30" fill="#FCFCFF" stroke="#FF6A95"/>
<g id="brand-logos">
<path id="Vector" d="M5.43628 10.8197V2.66346L14.4988 0.961517L23.5613 2.66346V10.8197H5.43628Z" fill="#FFD54F"/>
<path id="Vector_2" d="M5.43628 10.8197L14.4988 0.961517L23.5613 10.8197H5.43628Z" fill="#FFECB3"/>
<path id="Vector_3" d="M-0.0012207 10.8197L14.4988 28.0385L28.9988 10.8197H-0.0012207Z" fill="#FFA000"/>
<path id="Vector_4" d="M5.43628 10.8197L14.4988 28.0385L23.5613 10.8197H5.43628Z" fill="#FFCA28"/>
<g id="Group">
<path id="Vector_5" d="M-0.0012207 10.8197L5.43628 2.66345V10.8197H-0.0012207Z" fill="#FFC107"/>
<path id="Vector_6" d="M23.5613 2.66345V10.8197H28.9988L23.5613 2.66345Z" fill="#FFC107"/>
</g>
</g>
</g>
</g>
</g>
</g>
<defs>
<filter id="filter0_d_0_1" x="-1162" y="-633" width="1530" height="1214" filterUnits="userSpaceOnUse" color-interpolation-filters="sRGB">
<feFlood flood-opacity="0" result="BackgroundImageFix"/>
<feColorMatrix in="SourceAlpha" type="matrix" values="0 0 0 0 0 0 0 0 0 0 0 0 0 0 0 0 0 0 127 0" result="hardAlpha"/>
<feOffset dy="15"/>
<feGaussianBlur stdDeviation="22.5"/>
<feColorMatrix type="matrix" values="0 0 0 0 0.095 0 0 0 0 0.106176 0 0 0 0 0.475 0 0 0 0.05 0"/>
<feBlend mode="normal" in2="BackgroundImageFix" result="effect1_dropShadow_0_1"/>
<feBlend mode="normal" in="SourceGraphic" in2="effect1_dropShadow_0_1" result="shape"/>
</filter>
<clipPath id="clip0_0_1">
<rect width="1600" height="1200" fill="white" transform="translate(-1210 -642)"/>
</clipPath>
</defs>
</svg>
