<svg width="29" height="29" viewBox="0 0 29 29" fill="none" xmlns="http://www.w3.org/2000/svg">
<rect width="29" height="29" fill="#E5E5E5"/>
<g id="Day 1384 Landing Page UI Design" clip-path="url(#clip0_0_1)">
<rect width="1600" height="1200" transform="translate(-1134 -642)" fill="white"/>
<rect id="Rectangle 18" x="-1134" y="-642" width="1600" height="1200" fill="#EDEDF9"/>
<g id="Group 29">
<g id="Rectangle 14" filter="url(#filter0_d_0_1)">
<path d="M-1041 -578C-1041 -591.807 -1029.81 -603 -1016 -603H374C387.807 -603 399 -591.807 399 -578V496C399 509.807 387.807 521 374 521H-1016C-1029.81 521 -1041 509.807 -1041 496V-578Z" fill="white"/>
</g>
<g id="Frame 24">
<g id="components/software-btn">
<circle id="Ellipse 5" cx="14.4988" cy="14.5" r="30" fill="#FCFCFF" stroke="#EFEFFF"/>
<g id="brand-logos">
<g id="Group 18">
<path id="Vector" d="M14.4178 14.5C14.4178 11.8306 16.5575 9.66663 19.1971 9.66663C21.8366 9.66663 23.9764 11.8306 23.9764 14.5C23.9764 17.1694 21.8366 19.3333 19.1971 19.3333C16.5575 19.3333 14.4178 17.1694 14.4178 14.5Z" fill="#1ABCFE"/>
<path id="Vector_2" d="M4.85913 24.1666C4.85913 21.4973 6.99891 19.3333 9.63846 19.3333H14.4178V24.1666C14.4178 26.836 12.278 29 9.63846 29C6.99891 29 4.85913 26.836 4.85913 24.1666Z" fill="#0ACF83"/>
<path id="Vector_3" d="M14.4178 0V9.66664H19.1971C21.8367 9.66664 23.9764 7.5027 23.9764 4.83333C23.9764 2.16396 21.8367 0 19.1971 0H14.4178Z" fill="#FF7262"/>
<path id="Vector_4" d="M4.85913 4.83333C4.85913 7.50271 6.99891 9.66664 9.63846 9.66664H14.4178V0H9.63846C6.99891 0 4.85913 2.16396 4.85913 4.83333Z" fill="#F24E1E"/>
<path id="Vector_5" d="M4.85913 14.5C4.85913 17.1694 6.99891 19.3333 9.63846 19.3333H14.4178V9.66663H9.63846C6.99891 9.66663 4.85913 11.8306 4.85913 14.5Z" fill="#A259FF"/>
</g>
</g>
</g>
</g>
</g>
</g>
<defs>
<filter id="filter0_d_0_1" x="-1086" y="-633" width="1530" height="1214" filterUnits="userSpaceOnUse" color-interpolation-filters="sRGB">
<feFlood flood-opacity="0" result="BackgroundImageFix"/>
<feColorMatrix in="SourceAlpha" type="matrix" values="0 0 0 0 0 0 0 0 0 0 0 0 0 0 0 0 0 0 127 0" result="hardAlpha"/>
<feOffset dy="15"/>
<feGaussianBlur stdDeviation="22.5"/>
<feColorMatrix type="matrix" values="0 0 0 0 0.095 0 0 0 0 0.106176 0 0 0 0 0.475 0 0 0 0.05 0"/>
<feBlend mode="normal" in2="BackgroundImageFix" result="effect1_dropShadow_0_1"/>
<feBlend mode="normal" in="SourceGraphic" in2="effect1_dropShadow_0_1" result="shape"/>
</filter>
<clipPath id="clip0_0_1">
<rect width="1600" height="1200" fill="white" transform="translate(-1134 -642)"/>
</clipPath>
</defs>
</svg>
